<svg id="Logo" xmlns="http://www.w3.org/2000/svg" viewBox="0 0 117.91 52.7"><defs><style>.cls-1{fill:#1d1d1b;}.cls-2{fill:#b20776;}.cls-3{fill:#e50071;}</style></defs><title>OST_Logo_DE_4c_uncoated</title><path class="cls-1" d="M67.93,17.11a7.56,7.56,0,0,0-7.69,7.58,7.69,7.69,0,1,0,15.38,0A7.56,7.56,0,0,0,67.93,17.11Zm0,13.09a5.25,5.25,0,0,1-5.08-5.51,5.08,5.08,0,1,1,10.16,0A5.25,5.25,0,0,1,67.93,30.2Z" transform="translate(-1.58 -0.91)"/><path class="cls-1" d="M84,23.73c-1.52-.64-2.84-1.18-2.84-2.39a2.14,2.14,0,0,1,2.38-1.92,5.5,5.5,0,0,1,3.3,1.26l1.09-2a6.43,6.43,0,0,0-4.37-1.53c-2.82,0-5,1.83-5,4.27s2.24,3.52,4.21,4.37c1.56.67,2.91,1.25,2.91,2.49s-1.15,1.93-2.3,1.93a6,6,0,0,1-3.74-1.54l-1.37,1.9a7.39,7.39,0,0,0,5.07,2c2.87,0,4.87-1.77,4.87-4.31C88.29,25.49,86,24.55,84,23.73Z" transform="translate(-1.58 -0.91)"/><polygon class="cls-1" points="99.22 16.45 89.57 16.45 89.57 18.53 93.21 18.53 93.21 31.32 95.56 31.32 95.56 18.53 99.22 18.53 99.22 16.45"/><path class="cls-1" d="M61.19,41.42c0-1.73,1-3,2.67-3s2.52,1.26,2.52,2.87c0,1.89-.92,3.12-2.63,3.12S61.19,43.16,61.19,41.42Zm4.63,0c0-1.6-.8-2.48-2-2.48s-2.09.89-2.09,2.52.83,2.53,2,2.53S65.82,43.1,65.82,41.38Z" transform="translate(-1.58 -0.91)"/><path class="cls-1" d="M70.21,41.39l-.53.06c-.09-.53-.25-.84-.92-.84s-.88.31-.88.67.36.59,1,.74,1.42.34,1.42,1.23c0,.7-.53,1.17-1.51,1.17s-1.46-.35-1.58-1.24l.51-.09a.94.94,0,0,0,1.09.86c.54,0,.95-.15.95-.68s-.34-.57-.93-.72-1.48-.28-1.48-1.22c0-.79.68-1.17,1.45-1.17A1.25,1.25,0,0,1,70.21,41.39Z" transform="translate(-1.58 -0.91)"/><path class="cls-1" d="M73.42,44.16a1.85,1.85,0,0,1-.93.26c-.73,0-1.09-.33-1.09-1.1V40.68h-.64v-.44h.64V39.06l.54-.08v1.26h1.14v.44H71.94v2.57c0,.47.09.73.63.73a1.56,1.56,0,0,0,.73-.21Z" transform="translate(-1.58 -0.91)"/><path class="cls-1" d="M76.9,41.39l-.52.06c-.1-.53-.25-.84-.92-.84s-.88.31-.88.67.36.59,1,.74S77,42.36,77,43.25c0,.7-.53,1.17-1.51,1.17s-1.47-.35-1.59-1.24l.51-.09a1,1,0,0,0,1.1.86c.54,0,.94-.15.94-.68s-.33-.57-.92-.72S74,42.27,74,41.33c0-.79.68-1.17,1.44-1.17A1.24,1.24,0,0,1,76.9,41.39Z" transform="translate(-1.58 -0.91)"/><path class="cls-1" d="M77.8,42.31c0-1.43.72-2.15,1.94-2.15a1.37,1.37,0,0,1,1.49,1.36l-.54.08c-.07-.66-.38-1-1-1s-1.33.35-1.33,1.62.66,1.7,1.31,1.7a1,1,0,0,0,1.08-.9l.51.1a1.5,1.5,0,0,1-1.62,1.28C78.3,44.42,77.8,43.54,77.8,42.31Z" transform="translate(-1.58 -0.91)"/><path class="cls-1" d="M85.65,44.32h-.54v-2.7c0-.62-.21-1-.85-1a2.31,2.31,0,0,0-1.35.58v3.11h-.54v-6h.54v2.45a2.5,2.5,0,0,1,1.5-.58c.87,0,1.24.48,1.24,1.4Z" transform="translate(-1.58 -0.91)"/><path class="cls-1" d="M87.65,44.32l-1.31-4.08h.55L88,43.78l1-3.54h.58l1,3.52,1.08-3.52h.51l-1.29,4.08h-.64l-.92-3.48-.93,3.48Z" transform="translate(-1.58 -0.91)"/><path class="cls-1" d="M92.59,42.28c0-1.49.86-2.12,1.89-2.12s1.58.76,1.58,1.73c0,.16,0,.33,0,.5H93.15c0,1.22.6,1.55,1.31,1.55a.91.91,0,0,0,1-.78l.5.1a1.47,1.47,0,0,1-1.58,1.16C93,44.42,92.59,43.41,92.59,42.28ZM95.5,42c0-.84-.31-1.34-1.07-1.34A1.24,1.24,0,0,0,93.16,42Z" transform="translate(-1.58 -0.91)"/><path class="cls-1" d="M97.51,39.25a.39.39,0,0,1-.43-.43.44.44,0,0,1,.87,0A.4.4,0,0,1,97.51,39.25Zm.26,5.07h-.54V40.24h.54Z" transform="translate(-1.58 -0.91)"/><path class="cls-1" d="M99.33,43.88h2.55v.44H98.71V44l2.46-3.27H98.75v-.44h3v.38Z" transform="translate(-1.58 -0.91)"/><path class="cls-1" d="M102.42,42.28c0-1.49.86-2.12,1.89-2.12s1.58.76,1.58,1.73c0,.16,0,.33,0,.5H103c0,1.22.6,1.55,1.31,1.55a.9.9,0,0,0,1-.78l.5.1a1.46,1.46,0,0,1-1.57,1.16C102.83,44.42,102.42,43.41,102.42,42.28Zm2.91-.32c0-.84-.31-1.34-1.06-1.34A1.25,1.25,0,0,0,103,42Z" transform="translate(-1.58 -0.91)"/><path class="cls-1" d="M109.07,40.72a1.85,1.85,0,0,0-1.47.47v3.13h-.53V40.24h.44l0,.57a1.53,1.53,0,0,1,1.4-.65h.12Z" transform="translate(-1.58 -0.91)"/><path class="cls-1" d="M62.12,53.52h-.53V47.73h3.27v.47H62.12v2.25h2.54v.47H62.12Z" transform="translate(-1.58 -0.91)"/><path class="cls-1" d="M68.4,52.87c0,.22,0,.32.25.32a1,1,0,0,0,.25,0l0,.34a1,1,0,0,1-.49.12.5.5,0,0,1-.53-.52,1.85,1.85,0,0,1-1.36.54,1,1,0,0,1-1.2-1.1c0-1.16,1.05-1.38,2-1.38l.54,0v-.41c0-.63-.18-1-.89-1s-.87.25-1,.73l-.51-.08c.13-.76.63-1.08,1.5-1.08s1.39.38,1.39,1.4Zm-.53-1.28a3.07,3.07,0,0,0-.5,0c-.56,0-1.46,0-1.46.88,0,.4.14.75.77.75a1.68,1.68,0,0,0,1.19-.56Z" transform="translate(-1.58 -0.91)"/><path class="cls-1" d="M69.51,51.51c0-1.43.72-2.15,1.93-2.15a1.37,1.37,0,0,1,1.49,1.36l-.54.08c-.07-.66-.37-1-1-1s-1.32.35-1.32,1.62.65,1.7,1.31,1.7a1,1,0,0,0,1.08-.9l.5.1a1.48,1.48,0,0,1-1.61,1.28C70,53.62,69.51,52.74,69.51,51.51Z" transform="translate(-1.58 -0.91)"/><path class="cls-1" d="M77.35,53.52h-.53v-2.7c0-.62-.22-1-.85-1a2.35,2.35,0,0,0-1.36.58v3.11h-.53v-6h.53v2.45a2.52,2.52,0,0,1,1.5-.58c.88,0,1.24.49,1.24,1.4Z" transform="translate(-1.58 -0.91)"/><path class="cls-1" d="M82,53.52h-.54v-2.7c0-.62-.21-1-.84-1a2.32,2.32,0,0,0-1.36.58v3.11h-.54v-6h.54v2.45a2.5,2.5,0,0,1,1.5-.58c.87,0,1.24.49,1.24,1.4Z" transform="translate(-1.58 -0.91)"/><path class="cls-1" d="M83.11,51.5c0-1.33.68-2.14,1.94-2.14s1.77.82,1.77,2-.54,2.22-1.87,2.22S83.11,52.7,83.11,51.5Zm3.15-.06c0-1.21-.46-1.62-1.24-1.62s-1.36.5-1.36,1.65.44,1.69,1.33,1.69S86.26,52.68,86.26,51.44Z" transform="translate(-1.58 -0.91)"/><path class="cls-1" d="M87.7,51.51c0-1.43.72-2.15,1.93-2.15a1.37,1.37,0,0,1,1.49,1.36l-.53.08c-.08-.66-.38-1-1-1s-1.33.35-1.33,1.62.65,1.7,1.31,1.7a1,1,0,0,0,1.08-.9l.5.1a1.48,1.48,0,0,1-1.61,1.28C88.19,53.62,87.7,52.74,87.7,51.51Z" transform="translate(-1.58 -0.91)"/><path class="cls-1" d="M95.55,53.52H95v-2.7c0-.62-.22-1-.85-1a2.38,2.38,0,0,0-1.36.58v3.11h-.53v-6h.53v2.45a2.53,2.53,0,0,1,1.51-.58c.87,0,1.24.49,1.24,1.4Z" transform="translate(-1.58 -0.91)"/><path class="cls-1" d="M99.59,50.59l-.53.06c-.09-.53-.24-.84-.91-.84s-.88.31-.88.67.36.59,1,.74,1.42.34,1.42,1.23c0,.7-.52,1.17-1.51,1.17s-1.46-.35-1.58-1.24l.51-.09a1,1,0,0,0,1.1.86c.53,0,.94-.15.94-.68s-.33-.57-.93-.72-1.48-.28-1.48-1.22.68-1.17,1.45-1.17A1.25,1.25,0,0,1,99.59,50.59Z" transform="translate(-1.58 -0.91)"/><path class="cls-1" d="M100.49,51.51c0-1.43.72-2.15,1.94-2.15a1.36,1.36,0,0,1,1.48,1.36l-.53.08c-.08-.66-.38-1-1-1s-1.33.35-1.33,1.62.66,1.7,1.31,1.7a1,1,0,0,0,1.08-.9l.5.1a1.48,1.48,0,0,1-1.61,1.28C101,53.62,100.49,52.74,100.49,51.51Z" transform="translate(-1.58 -0.91)"/><path class="cls-1" d="M108.34,53.52h-.54v-2.7c0-.62-.22-1-.85-1a2.38,2.38,0,0,0-1.36.58v3.11h-.53v-6h.53v2.45a2.53,2.53,0,0,1,1.51-.58c.87,0,1.24.49,1.24,1.4Z" transform="translate(-1.58 -0.91)"/><path class="cls-1" d="M109.71,49.44h.53v2.7c0,.62.19,1,.83,1a2.31,2.31,0,0,0,1.35-.58V49.44H113v4.08h-.47l0-.51a2.62,2.62,0,0,1-1.54.59c-.87,0-1.21-.49-1.21-1.4Z" transform="translate(-1.58 -0.91)"/><path class="cls-1" d="M114.91,53.52h-.54v-6h.54Z" transform="translate(-1.58 -0.91)"/><path class="cls-1" d="M116,51.48c0-1.49.86-2.12,1.89-2.12s1.58.76,1.58,1.73c0,.16,0,.33,0,.5h-2.87c0,1.22.6,1.55,1.31,1.55a.91.91,0,0,0,1-.78l.5.1a1.47,1.47,0,0,1-1.58,1.16C116.44,53.62,116,52.61,116,51.48Zm2.91-.32c0-.84-.31-1.34-1.07-1.34a1.24,1.24,0,0,0-1.27,1.34Z" transform="translate(-1.58 -0.91)"/><path class="cls-1" d="M42.77,8.05a24.09,24.09,0,1,0-.06,34c4.36-4.37,12-10.39,12-17S47.1,12.4,42.77,8.05ZM41.56,38.68a19.21,19.21,0,0,1-13.62,5.65c-.6,0-1.19,0-1.77-.08l-.89-.1c-.58.08-1.17.13-1.77.16l-.88,0a19.28,19.28,0,1,1,0-38.55l.88,0c.6,0,1.19.09,1.77.17.3,0,.59-.08.89-.1a17.19,17.19,0,0,1,1.77-.09,19.25,19.25,0,0,1,13.68,5.71c3.45,3.48,9.52,8.28,9.52,13.57S45.05,35.19,41.56,38.68Z" transform="translate(-1.58 -0.91)"/><path class="cls-2" d="M38,38.68c-3.55,3.56-8.13,5-12.74,5.47l.89.1c.58,0,1.17.08,1.77.08a19.21,19.21,0,0,0,13.62-5.65c3.49-3.49,9.58-8.31,9.58-13.62S45.07,15,41.62,11.49A19.25,19.25,0,0,0,27.94,5.78a17.19,17.19,0,0,0-1.77.09c-.3,0-.59.06-.89.1,4.64.42,9.69,2.39,12.8,5.52C41.54,15,47.6,19.77,47.6,25.06S41.51,35.19,38,38.68Z" transform="translate(-1.58 -0.91)"/><path class="cls-3" d="M36.25,38.68a19.29,19.29,0,0,1-11,5.47c4.61-.43,9.19-1.91,12.74-5.47s9.58-8.31,9.58-13.62S41.54,15,38.08,11.49C35,8.36,29.92,6.39,25.28,6a19.25,19.25,0,0,1,11,5.52c3.45,3.48,9.52,8.28,9.52,13.57S39.74,35.19,36.25,38.68Z" transform="translate(-1.58 -0.91)"/><path class="cls-2" d="M5.12,25.06C5.12,14.73,13.43,6.25,25.28,6c-.58-.08-1.17-.14-1.77-.17l-.88,0a19.28,19.28,0,1,0,0,38.55l.88,0c.6,0,1.19-.08,1.77-.16C15.1,44.43,5.12,35.39,5.12,25.06Z" transform="translate(-1.58 -0.91)"/><path class="cls-3" d="M8.66,25.06A19.26,19.26,0,0,1,25.28,6h0C13.43,6.25,5.12,14.73,5.12,25.06s10,19.37,20.16,19.09h0A19.32,19.32,0,0,1,8.66,25.06Z" transform="translate(-1.58 -0.91)"/></svg>