<?xml version="1.0" standalone="no"?>
<!DOCTYPE svg PUBLIC "-//W3C//DTD SVG 20010904//EN"
 "http://www.w3.org/TR/2001/REC-SVG-20010904/DTD/svg10.dtd">
<svg version="1.0" xmlns="http://www.w3.org/2000/svg"
 width="576.000000pt" height="576.000000pt" viewBox="0 0 576.000000 576.000000"
 preserveAspectRatio="xMidYMid meet">
<metadata>
Created by potrace 1.11, written by Peter Selinger 2001-2013
</metadata>
<g transform="translate(0.000000,576.000000) scale(0.100000,-0.100000)"
fill="#000000" stroke="none">
<path d="M2117 5124 c-3 -3 -65 -7 -138 -9 -149 -5 -233 -12 -324 -29 -11 -2
-40 -7 -65 -11 -66 -11 -68 -11 -155 -34 -44 -12 -88 -24 -97 -26 -10 -3 -26
-7 -35 -9 -16 -4 -109 -36 -153 -53 -8 -4 -17 -7 -20 -8 -115 -39 -329 -156
-473 -259 -101 -72 -273 -233 -344 -321 -56 -70 -153 -217 -153 -232 0 -7 -4
-13 -10 -13 -5 0 -10 -7 -10 -15 0 -8 -8 -29 -18 -47 -35 -63 -85 -221 -107
-338 -14 -73 -13 -305 1 -395 13 -80 43 -192 72 -265 5 -14 10 -28 11 -32 2
-17 86 -167 127 -229 24 -36 68 -96 98 -133 63 -76 64 -61 -13 -201 -49 -89
-159 -258 -173 -263 -4 -2 -8 -7 -8 -12 0 -4 -11 -21 -24 -36 -13 -16 -43 -51
-66 -78 -37 -44 -41 -54 -36 -85 9 -60 34 -70 156 -66 93 3 122 6 205 20 142
23 329 87 489 166 72 35 124 55 130 50 22 -17 254 -105 351 -133 111 -32 246
-63 315 -72 25 -3 56 -8 70 -11 61 -10 133 -16 243 -20 65 -3 122 -7 127 -10
6 -4 10 -3 10 2 0 4 44 9 98 9 53 1 120 4 147 7 77 9 138 17 165 22 14 3 45 8
70 11 25 3 48 8 53 11 4 2 20 6 35 9 94 16 294 81 427 138 72 30 237 115 255
131 8 7 25 16 38 19 12 4 22 12 22 17 0 5 7 9 15 9 8 0 15 5 15 10 0 6 4 10
10 10 36 0 305 241 397 355 151 187 259 422 299 650 15 88 12 313 -6 413 -27
148 -108 368 -158 425 -8 9 -12 17 -9 17 8 0 -71 115 -126 185 -40 50 -186
197 -243 245 -51 43 -218 160 -228 160 -5 0 -17 6 -25 14 -9 7 -59 36 -111 63
-81 43 -133 65 -305 133 -57 22 -286 83 -355 94 -19 3 -44 7 -55 10 -11 2 -45
7 -75 11 -30 4 -68 9 -85 11 -16 2 -74 6 -128 9 -53 2 -101 6 -106 9 -4 3 -11
3 -14 0z"/>
<path d="M4474 3548 c0 -194 -3 -234 -32 -364 -26 -115 -64 -227 -110 -324
-19 -41 -35 -78 -34 -82 1 -5 -2 -8 -7 -8 -5 0 -12 -9 -16 -20 -7 -23 -61
-114 -90 -152 -11 -14 -27 -36 -35 -48 -8 -13 -22 -31 -30 -39 -8 -9 -27 -33
-42 -52 -61 -82 -233 -245 -343 -327 -38 -28 -75 -56 -81 -61 -61 -50 -338
-201 -474 -257 -76 -31 -226 -84 -255 -90 -11 -2 -31 -8 -45 -13 -21 -8 -80
-23 -87 -22 -2 0 -17 -5 -35 -10 -18 -5 -46 -12 -63 -15 -16 -3 -48 -9 -70
-14 -22 -5 -62 -12 -90 -15 -27 -4 -61 -8 -75 -11 -40 -7 -171 -17 -222 -18
-27 -1 -48 -5 -48 -9 0 -5 -4 -6 -9 -3 -5 3 -87 8 -182 11 -96 2 -186 7 -201
10 -16 3 -28 3 -28 -1 0 -6 49 -93 62 -109 5 -5 25 -32 45 -60 53 -71 50 -67
143 -164 222 -230 502 -399 855 -516 44 -15 88 -29 97 -31 10 -2 26 -6 36 -8
68 -17 120 -28 140 -32 30 -6 63 -12 87 -17 12 -3 48 -8 80 -12 33 -4 73 -9
90 -11 24 -4 246 -16 280 -15 99 2 308 16 350 24 17 3 50 9 75 12 25 4 65 11
90 17 25 5 56 12 70 14 14 3 43 10 65 16 22 6 45 11 50 13 6 1 17 4 25 7 8 3
53 18 100 33 47 15 129 47 183 71 l98 42 117 -58 c106 -54 315 -132 385 -144
15 -3 35 -7 45 -10 9 -3 35 -8 57 -11 22 -4 51 -8 65 -11 52 -8 216 -14 242
-8 37 7 61 48 54 88 -4 17 -23 49 -43 71 -105 115 -246 330 -315 477 l-17 38
35 42 c20 24 43 52 52 63 93 111 214 350 248 485 34 138 36 156 39 320 3 247
-52 449 -183 674 -20 34 -40 66 -44 71 -5 6 -32 42 -60 80 -49 65 -185 208
-253 265 -156 130 -363 252 -555 330 -30 12 -64 26 -75 30 -11 5 -33 13 -50
18 -16 6 -37 13 -46 16 -13 6 -15 -14 -15 -166z"/>
</g>
</svg>
